<svg xmlns="http://www.w3.org/2000/svg" xmlns:xlink="http://www.w3.org/1999/xlink" width="595.281" height="595.275" x="0" y="0" enable-background="new 0 123.308 595.281 595.275" version="1.1" viewBox="0 123.308 595.281 595.275" xml:space="preserve"><switch><g><g id="Layer_1"><g><path fill="#FFA000" d="M478.562,291.826H277.654l-44.646-44.646H121.393c-24.555,0-44.646,20.09-44.646,44.646v44.646v44.646 v178.584c0,24.555,20.091,44.646,44.646,44.646h357.169c24.555,0,44.645-20.091,44.645-44.646V381.118v-44.646 C523.207,311.917,503.117,291.826,478.562,291.826z"/></g><path fill="#FFCA28" d="M478.562,291.826H121.393c-24.555,0-44.646,20.091-44.646,44.646v223.23 c0,24.555,20.091,44.646,44.646,44.646h357.169c24.555,0,44.645-20.091,44.645-44.646v-223.23 C523.207,311.917,503.117,291.826,478.562,291.826z"/><g><circle cx="438.188" cy="563.97" r="127.115" fill="#43A047"/><g><rect width="50.846" height="152.537" x="412.766" y="487.701" fill="#FFF"/><rect width="152.538" height="50.845" x="361.918" y="538.548" fill="#FFF"/></g></g></g><g id="Layer_2"><rect width="595.276" height="595.275" y="123.308" fill="none" stroke="#000" stroke-miterlimit="10" stroke-width=".283"/></g></g></switch></svg>