<svg xmlns="http://www.w3.org/2000/svg" xmlns:xlink="http://www.w3.org/1999/xlink" x="0" y="0" version="1.1" viewBox="0 123.308 595.281 595.275" xml:space="preserve" style="enable-background:new .00004 123.30763 595.2807 595.27539"><style type="text/css">.st0{fill:#ffa000}.st1{fill:#d68600}.st2{fill:#43a047}.st3{fill:#fff}.st4{fill:none;stroke:#000;stroke-width:.28346;stroke-miterlimit:10}</style><switch><g><g id="Layer_1"><g><g><polygon points="195.453 583.588 219.144 559.897 195.453 536.206 195.453 512.515 219.144 488.824 195.453 465.133 195.453 370.37 337.598 370.37 337.598 607.279 290.216 654.661 242.835 654.661 195.453 607.279" class="st0"/><path d="M88.84347,294.55869c0,30.79822,5.92274,59.22733,11.84547,79.36465 c5.92273,20.1373,22.50641,36.72095,43.82825,41.45914c28.42912,5.92273,72.25735,14.21457,122.00835,14.21457 s93.57919-8.29184,122.00833-15.39911c21.32187-4.73816,37.90552-20.1373,43.82825-41.45914 c5.92273-20.1373,11.84549-48.56644,11.84549-79.36465s-5.92276-59.22737-11.84549-79.36467 c-5.92273-21.32184-23.69095-36.72096-43.82825-42.64369c-28.42914-5.92273-72.25735-14.21457-122.00833-14.21457 s-93.57922,8.29184-122.00835,14.21457c-20.13731,5.92273-37.90553,21.32185-43.82825,42.64369 C94.7662,234.14677,88.84347,262.5759,88.84347,294.55869z M183.60724,251.91499v-23.69095 c0-7.10728,36.72096-11.84547,82.9183-11.84547s82.91827,4.73819,82.91827,11.84547v23.69095 c0,13.03001-10.66092,23.69093-23.69092,23.69093H207.29817C194.26816,275.60593,183.60724,264.94501,183.60724,251.91499z" class="st0"/></g><rect width="23.691" height="225.064" x="254.68" y="429.597" class="st1"/></g><g><ellipse cx="438.188" cy="563.97" class="st2" rx="127.115" ry="127.115" transform="matrix(0.70711 -0.70711 0.70711 0.70711 -270.44446 475.02878)"/><g><rect width="50.846" height="152.537" x="412.766" y="487.701" class="st3"/><rect width="152.538" height="50.845" x="361.918" y="538.548" class="st3"/></g></g></g><g id="Layer_2"><rect width="595.276" height="595.275" x="0" y="123.308" class="st4"/></g></g></switch></svg>