<svg xmlns="http://www.w3.org/2000/svg" xmlns:xlink="http://www.w3.org/1999/xlink" width="595.281" height="595.275" x="0" y="0" enable-background="new 0 123.308 595.281 595.275" version="1.1" viewBox="0 123.308 595.281 595.275" xml:space="preserve"><switch><g><g id="Layer_1"><path fill="#FF9100" d="M297.638,144.41c-152.742,0-276.533,123.791-276.533,276.533c0,102.247,55.634,191.246,138.107,239.156 l62.271-107.64c-45.368-26.313-75.94-75.285-75.94-131.517c0-83.983,68.11-152.094,152.094-152.094 c83.977,0,152.094,68.111,152.094,152.094c0,56.231-30.578,105.203-75.946,131.517l62.271,107.64 c82.479-47.91,138.113-136.909,138.113-239.156C574.17,268.2,450.38,144.41,297.638,144.41z"/><path fill="#1A237E" d="M380.591,420.942c0-45.803-37.15-82.959-82.954-82.959c-45.803,0-82.959,37.156-82.959,82.959 c0,35.322,22.146,65.46,53.256,77.398l-35.381,191.078c20.902,5.081,42.614,8.063,65.084,8.063s44.169-2.981,65.078-8.011 l-35.374-191.13C358.451,486.402,380.591,456.265,380.591,420.942z"/></g><g id="Layer_2"><rect width="595.276" height="595.275" y="123.308" fill="none" stroke="#000" stroke-miterlimit="10" stroke-width=".283"/></g></g></switch></svg>