<svg xmlns="http://www.w3.org/2000/svg" xmlns:xlink="http://www.w3.org/1999/xlink" x="0" y="0" version="1.1" viewBox="0 123.308 595.281 595.275" xml:space="preserve" style="enable-background:new .00004 123.30763 595.2807 595.27539"><style type="text/css">.st0{fill:#90caf9}.st1{fill:#e1f5fe}.st2{fill:#ff9100}.st3{fill:#1a237e}.st4{display:none}.st5{display:inline;fill:none;stroke:#000;stroke-width:.28346;stroke-miterlimit:10}</style><switch><g><g id="Layer_1"><g><polygon points="512.14 702.476 83.141 702.476 83.141 139.414 378.078 139.414 512.14 273.477" class="st0"/><polygon points="492.031 286.883 364.672 286.883 364.672 159.524" class="st1"/><g><path d="M297.6377,325.47723c-84.78398,0-153.49756,68.71353-153.49756,153.49753 c0,56.75516,30.88144,106.15671,76.66058,132.75058l34.56561-59.74847c-25.18294-14.60608-42.15271-41.78925-42.15271-73.00211 c0-46.61716,37.80666-84.4241,84.42407-84.4241c46.61389,0,84.42432,37.80695,84.42432,84.4241 c0,31.21286-16.97327,58.39603-42.15619,73.00211l34.56561,59.74847c45.78207-26.59387,76.66379-75.99542,76.66379-132.75058 C451.13522,394.19077,382.42194,325.47723,297.6377,325.47723z" class="st2"/><path d="M343.6835,478.97476c0-25.42419-20.6214-46.04883-46.04581-46.04883 c-25.42416,0-46.0488,20.62463-46.0488,46.04883c0,19.6066,12.29279,36.33542,29.56119,42.96225l-19.63913,106.06342 c11.60214,2.82043,23.65396,4.47534,36.12674,4.47534c12.47275,0,24.51752-1.65491,36.12323-4.44659l-19.63538-106.09216 C331.39368,515.31018,343.6835,498.58136,343.6835,478.97476z" class="st3"/></g></g></g><g id="Layer_2" class="st4"><rect width="595.276" height="595.275" x="0" y="123.308" class="st5"/></g></g></switch></svg>