<svg xmlns="http://www.w3.org/2000/svg" xmlns:xlink="http://www.w3.org/1999/xlink" x="0" y="0" version="1.1" viewBox="0 123.308 595.281 595.275" xml:space="preserve" style="enable-background:new .00004 123.30763 595.2807 595.27539"><style type="text/css">.st0{fill:#ff9100}.st1{fill:#1a237e}.st2{clip-path:url(#SVGID_2_);fill:#635b58}.st3{fill:none;stroke:#000;stroke-width:.28346;stroke-miterlimit:10}</style><switch><g><g id="Layer_1"><g id="logo"><path d="M255.11819,137.47798c-133.08533,0-240.94493,107.85831-240.94493,240.94212 c0,89.08752,48.47455,166.6322,120.33401,208.3761l54.25758-93.78604c-39.52962-22.92688-66.16705-65.59579-66.16705-114.59006 c0-73.17404,59.34505-132.51888,132.52039-132.51888c73.16974,0,132.52072,59.34483,132.52072,132.51888 c0,48.99426-26.64291,91.66318-66.17255,114.59006l54.2576,93.78604c71.86407-41.7439,120.33905-119.28857,120.33905-208.3761 C496.06302,245.33629,388.20386,137.47798,255.11819,137.47798z" class="st0"/><path d="M327.39624,378.4201c0-39.90784-32.36942-72.28192-72.27805-72.28192 c-39.90829,0-72.28275,32.37408-72.28275,72.28192c0,30.77615,19.29596,57.03503,46.40215,67.43701L198.41005,612.3429 c18.21188,4.42719,37.12961,7.02484,56.70815,7.02484c19.57843,0,38.48511-2.59766,56.70255-6.97968l-30.82159-166.53094 C308.10489,435.45514,327.39624,409.19626,327.39624,378.4201z" class="st1"/></g><g id="package"><defs><path id="SVGID_1_" d="M546.45673,704.40997H303.93704c-19.05511,0-34.64566-15.59052-34.64566-34.64569V427.24463 c0-19.05511,15.59055-34.64569,34.64566-34.64569h242.51968c19.05511,0,34.64569,15.59058,34.64569,34.64569v242.51965 C581.10242,688.81946,565.51184,704.40997,546.45673,704.40997z"/></defs><use xlink:href="#SVGID_1_" style="overflow:visible;fill:#d0cac2"/><clipPath id="SVGID_2_"><use xlink:href="#SVGID_1_" style="overflow:visible"/></clipPath><path d="M472.83469,479.21313h-95.2756c-6.92911,0-12.99213-6.06299-12.99213-12.99213l0,0 c0-6.92914,6.06302-12.99213,12.99213-12.99213h95.2756c6.92914,0,12.99213,6.06299,12.99213,12.99213l0,0 C485.82681,473.15015,479.76382,479.21313,472.83469,479.21313z" class="st2"/></g></g><g id="Layer_2"><rect width="595.276" height="595.275" x="0" y="123.308" class="st3"/></g></g></switch></svg>