<svg xmlns="http://www.w3.org/2000/svg" xmlns:xlink="http://www.w3.org/1999/xlink" x="0" y="0" version="1.1" viewBox="0 123.308 595.281 595.275" xml:space="preserve" style="enable-background:new .00004 123.30763 595.2807 595.27539"><style type="text/css">.st0{clip-path:url(#SVGID_2_)}.st1{fill:#ff9100}.st2{fill:#1a237e}.st3{clip-path:url(#SVGID_2_);fill:#635b58}.st4{fill:none;stroke:#000;stroke-width:.28346;stroke-miterlimit:10}</style><switch><g><g id="Layer_1"><g><defs><path id="SVGID_1_" d="M507.08664,690.23676H88.18901c-32.91338,0-59.84252-26.92914-59.84252-59.84253V211.4966 c0-32.91339,26.92914-59.84253,59.84252-59.84253h418.89764c32.91342,0,59.84256,26.92914,59.84256,59.84253v418.89764 C566.9292,663.30762,540.00006,690.23676,507.08664,690.23676z"/></defs><use xlink:href="#SVGID_1_" style="overflow:visible;fill:#d0cac2"/><clipPath id="SVGID_2_"><use xlink:href="#SVGID_1_" style="overflow:visible"/></clipPath><g class="st0"><path d="M297.63785,338.73892c-86.11403,0-155.90553,69.79147-155.90553,155.90549 c0,57.64551,31.36589,107.82202,77.86319,134.83313l35.10785-60.68579c-25.57799-14.83521-42.81396-42.44482-42.81396-74.14734 c0-47.34845,38.39973-85.74847,85.74846-85.74847c47.34512,0,85.74872,38.40002,85.74872,85.74847 c0,31.70251-17.23953,59.31213-42.81754,74.14734l35.10788,60.68579c46.50027-27.01111,77.86642-77.18762,77.86642-134.83313 C453.54333,408.5304,383.75211,338.73892,297.63785,338.73892z" class="st1"/><path d="M344.40601,494.64441c0-25.823-20.94492-46.77118-46.76816-46.77118 c-25.823,0-46.77118,20.94818-46.77118,46.77118c0,19.91418,12.48563,36.90546,30.02493,43.63623l-19.94724,107.72729 c11.78415,2.86462,24.02502,4.54553,36.69348,4.54553c12.66843,0,24.90213-1.68091,36.68991-4.51636l-19.94339-107.75647 C331.92337,531.54987,344.40601,514.55859,344.40601,494.64441z" class="st2"/></g><path d="M379.9213,301.26038H215.35437c-11.96849,0-22.44095-10.47244-22.44095-22.44095l0,0 c0-11.96851,10.47246-22.44095,22.44095-22.44095H379.9213c11.96851,0,22.44095,10.47244,22.44095,22.44095l0,0 C402.36224,290.78793,391.8898,301.26038,379.9213,301.26038z" class="st3"/></g></g><g id="Layer_2"><rect width="595.276" height="595.275" x="0" y="123.308" class="st4"/></g></g></switch></svg>