<svg xmlns="http://www.w3.org/2000/svg" xmlns:xlink="http://www.w3.org/1999/xlink" width="595.281" height="595.275" x="0" y="0" enable-background="new 0 123.308 595.281 595.275" version="1.1" viewBox="0 123.308 595.281 595.275" xml:space="preserve"><switch><g><g id="Layer_1"><g><g><path fill="#BABCBE" d="M511.974,553.911c0,23.386-19.134,42.52-42.52,42.52H125.827c-23.386,0-42.52-19.134-42.52-42.52 V236.955c0-23.386,19.134-42.52,42.52-42.52h343.628c23.386,0,42.52,19.134,42.52,42.52V553.911z"/></g><path fill="#152128" d="M482.159,549.688V339.183h-85.502V289.85h-37.334v-48.672H235.958v48.672h-37.333v49.333h-85.503 v210.505H482.159z"/><g><line x1="178.32" x2="178.32" y1="476.621" y2="538.348" fill="none" stroke="#FFC425" stroke-miterlimit="10" stroke-width="19.843"/><line x1="212.411" x2="212.411" y1="476.621" y2="538.348" fill="none" stroke="#FFC425" stroke-miterlimit="10" stroke-width="19.843"/><line x1="246.503" x2="246.503" y1="476.621" y2="538.348" fill="none" stroke="#FFC425" stroke-miterlimit="10" stroke-width="19.843"/><line x1="280.595" x2="280.595" y1="476.621" y2="538.348" fill="none" stroke="#FFC425" stroke-miterlimit="10" stroke-width="19.843"/><line x1="314.686" x2="314.686" y1="476.621" y2="538.348" fill="none" stroke="#FFC425" stroke-miterlimit="10" stroke-width="19.843"/><line x1="348.778" x2="348.778" y1="476.621" y2="538.348" fill="none" stroke="#FFC425" stroke-miterlimit="10" stroke-width="19.843"/><line x1="382.87" x2="382.87" y1="476.621" y2="538.348" fill="none" stroke="#FFC425" stroke-miterlimit="10" stroke-width="19.843"/><line x1="416.961" x2="416.961" y1="476.621" y2="538.348" fill="none" stroke="#FFC425" stroke-miterlimit="10" stroke-width="19.843"/></g></g><g><circle cx="438.188" cy="563.97" r="127.115" fill="#43A047"/><g><rect width="50.846" height="152.537" x="412.766" y="487.701" fill="#FFF"/><rect width="152.538" height="50.845" x="361.918" y="538.548" fill="#FFF"/></g></g></g><g id="Layer_2"><rect width="595.276" height="595.275" y="123.308" fill="none" stroke="#000" stroke-miterlimit="10" stroke-width=".283"/></g></g></switch></svg>