<svg xmlns="http://www.w3.org/2000/svg" xmlns:xlink="http://www.w3.org/1999/xlink" x="0" y="0" version="1.1" viewBox="0 123.308 595.281 595.275" xml:space="preserve" style="enable-background:new .00004 123.30763 595.2807 595.27539"><style type="text/css">.st0{fill:#90caf9}.st1{fill:#e1f5fe}.st2{fill:#7cb342}.st3{fill:#0277bd}.st4{display:none}.st5{display:inline;fill:none;stroke:#000;stroke-width:.28346;stroke-miterlimit:10}</style><switch><g><g id="Layer_1"><g><polygon points="512.14 702.476 83.141 702.476 83.141 139.414 378.078 139.414 512.14 273.477" class="st0"/><polygon points="492.031 286.883 364.672 286.883 364.672 159.524" class="st1"/><g><path d="M297.63766,332.78842c-80.40343,0-146.18806,65.78464-146.18806,146.18808 s65.78464,146.18805,146.18806,146.18805s146.18808-65.78461,146.18808-146.18805S378.04111,332.78842,297.63766,332.78842z" class="st2"/><path d="M451.13516,478.9765c0,85.52002-69.43933,153.4975-153.4975,153.4975 S144.1402,564.49652,144.1402,478.9765S212.11766,325.479,297.63766,325.479S451.13516,393.45648,451.13516,478.9765z M296.17578,549.87775c0-2.92377-1.46188-4.38568-4.38562-5.84753c-9.50223-2.92377-18.27353-2.92377-26.31387-10.96411 c-1.46188-2.92377-1.46188-5.84753-2.92377-9.5022c-2.92374-2.92377-10.9641-4.38568-15.34973-5.84753 c-5.84752,0-12.42599,0-19.7354,0c-2.92375,0-8.04034,0-10.96411,0c-4.38564-1.46191-8.04034-8.04034-10.9641-12.42599 c0-1.46188,0-4.38565-2.92377-4.38565c-2.92375-1.46188-5.84752,1.46188-9.50223,0 c-1.46187-1.46188-1.46187-2.92377-1.46187-4.38565c0-4.38565,2.92375-9.50223,5.84752-12.42599 c4.38565-2.92374,9.50223,1.46188,13.88786,1.46188c1.46188,0,1.46188,0,2.92377,1.46188 c4.38564,1.46191,5.84752,7.30942,5.84752,12.42599c0,1.46188,0,2.92377,0,2.92377c0,1.46188,1.46188,1.46188,2.92375,1.46188 c1.46188-8.04034,1.46188-15.34973,2.92377-23.39011c0-9.5022,9.50223-18.2735,16.81163-21.19727 c2.92375-1.46188,4.38565,1.46188,8.04034,0c9.50223-2.92374,32.16138-12.42599,27.77573-24.85196 c-2.92377-10.96411-12.42599-21.19727-24.85196-19.73538c-2.92377,1.46188-4.38565,2.92377-7.30942,4.38565 c-4.38564,2.92377-13.88786,12.42596-18.2735,12.42596c-8.04034-1.46188-8.04034-12.42596-5.84753-16.81161 c1.46188-5.84753,15.34975-26.31384,24.85199-22.65915c1.46188,1.46188,4.38564,4.38565,5.8475,5.84753 c2.92377,1.46185,8.04034,1.46185,12.42599,1.46185c1.46188,0,2.92377,0,4.38565-1.46185 c1.46188-1.46188,1.46188-1.46188,1.46188-2.92377c0-4.38565-4.38565-9.50223-7.30942-12.42599 c-2.92374-2.92377-8.04033-5.84753-12.42598-8.04034c-15.34975-4.38565-40.20172,1.46188-51.89677,12.42599 c-11.69504,10.96411-21.19727,29.23761-27.77573,44.58734c-2.92377,9.50223-5.84753,21.19727-7.3094,32.16138 c-1.46188,7.30942-2.92377,13.88788,1.46187,21.19727c4.38565,9.50223,13.88788,18.27353,23.39009,24.85199 c5.84753,4.38562,18.27351,4.38562,24.85199,12.42596c4.38564,5.84753,2.92375,13.88788,2.92375,21.19727 c0,9.50226,5.84752,16.81165,9.50223,24.85199c1.46188,4.38562,2.92375,10.96411,4.38565,15.34973 c0,1.46191,1.46187,10.96411,1.46187,12.42603c9.50223,4.38562,16.81163,9.5022,27.77574,12.42596 c1.46188,0,7.30939-9.5022,7.30939-10.96411c4.38565-4.38562,8.04034-10.96411,12.42599-13.88788 c2.92377-1.46185,5.84753-2.92377,9.50223-5.84747c2.92377-2.92377,4.38565-9.50226,5.8475-13.88788 C296.17578,560.1109,297.63766,554.26337,296.17578,549.87775z M299.09958,408.07529c1.46188,0,2.92374-1.46188,5.8475-2.92377 c4.38565-2.92377,9.50223-8.04034,13.88788-10.96411c4.38562-2.92374,9.5022-8.04034,12.42596-10.96408 c4.38565-2.92377,8.04037-9.50223,9.50223-13.88788c1.46188-2.92377,5.84753-9.50223,4.38565-13.88788 c-1.46188-2.92377-9.50223-4.38562-12.42599-5.8475c-12.42599-2.92377-22.65915-4.38565-35.08514-4.38565 c-4.38562,0-10.96408,1.46188-12.42596,5.84753c-1.46191,8.04034,4.38562,5.8475,10.96408,8.04034 c0,0,1.46188,12.42596,1.46188,13.88785c1.46191,7.30942-2.92374,12.42599-2.92374,19.73538 c0,4.38565,0,12.42599,2.92374,15.34976H299.09958z M427.74506,515.5235c1.46188-2.92377,1.46188-8.04031,2.92377-10.96408 c1.46188-7.30942,1.46188-15.34976,1.46188-22.65915c0-15.34976-1.46188-30.69949-5.8475-44.58737 c-2.92377-4.38565-4.38562-9.50223-5.8475-13.88788c-2.9238-8.04034-7.30942-15.34973-13.88788-21.19727 c-5.84753-8.04034-13.88788-29.23761-27.77576-22.65915c-4.38562,1.46188-7.30939,7.30942-10.96408,10.96411 c-2.9238,4.38565-5.84753,9.50223-9.50223,13.88785c-1.46188,1.46188-2.92377,4.38565-1.46188,5.84753 c0,1.46188,1.46188,1.46188,2.92377,1.46188c2.92377,1.46188,4.38562,1.46188,7.30942,2.92377 c1.46188,0,2.92377,1.46188,1.46188,2.92374c0,0,0,1.46188-1.46188,1.46188 c-7.30942,8.04034-15.34976,13.88788-22.65918,21.1973c-1.46188,1.46188-2.92374,4.38562-2.92374,5.8475 s1.46188,1.46188,1.46188,2.92377s-1.46188,1.46188-2.92377,2.92374c-2.92377,1.46191-5.8475,2.92377-8.04034,4.38565 c-1.46188,2.92377,0,8.04034-1.46188,10.96411c-1.46188,8.04034-5.84753,13.88788-9.50223,21.19727 c-2.92377,4.38565-4.38565,9.50223-7.30939,13.88788c0,5.8475-1.46191,10.96411,1.46188,15.34973 c7.30939,10.96411,21.19727,4.38568,32.16138,9.50226c2.92374,1.46185,5.8475,1.46185,8.04034,4.38562 c4.38562,4.38562,4.38562,12.42596,5.8475,16.81165c1.46188,5.84747,2.92377,12.42596,5.84753,18.2735 c1.46188,7.30939,4.38562,15.34973,5.8475,21.19727c13.88788-10.96411,26.31384-22.65912,35.08514-38.00891 C418.97379,540.37549,423.35944,527.94952,427.74506,515.5235z" class="st3"/></g></g></g><g id="Layer_2" class="st4"><rect width="595.276" height="595.275" x="0" y="123.308" class="st5"/></g></g></switch></svg>